PathFileType	4	(X/Y/Z)	./resultDataOpenSim/trcMotMarkerGrf/sub06/qtm-03-01.trc
DataRate	CameraRate	NumFrames	NumMarkers	Units	OrigDataRate	OrigDataStartFrame	OrigNumFrames
250.000000	250.000000	5	24	m	250.000000	63	496
Frame#	Time	L.Toe.Tip			R.Toe.Tip			L.Ankle.Lat			R.Ankle.Lat			L.Ankle.Med			R.Ankle.Med			L.Heel			R.Heel			L.Knee.Lat			R.Knee.Lat			L.Knee.Med			R.Knee.Med			L.Thigh.Upper			R.Thigh.Upper			L.ASIS			R.ASIS			V.Sacral			L.Acromium			R.Acromium			C7			L.Elbow			R.Elbow			L.Wrist.Lat			R.Wrist.Lat
		X1	Y1	Z1	X2	Y2	Z2	X3	Y3	Z3	X4	Y4	Z4	X5	Y5	Z5	X6	Y6	Z6	X7	Y7	Z7	X8	Y8	Z8	X9	Y9	Z9	X10	Y10	Z10	X11	Y11	Z11	X12	Y12	Z12	X13	Y13	Z13	X14	Y14	Z14	X15	Y15	Z15	X16	Y16	Z16	X17	Y17	Z17	X18	Y18	Z18	X19	Y19	Z19	X20	Y20	Z20	X21	Y21	Z21	X22	Y22	Z22	X23	Y23	Z23	X24	Y24	Z24

63	0.248	-1.2122956	0.080588003	-0.04864417	-0.77777519	0.036304832	0.12919037	-1.2271678	0.20900559	-0.076860784	-0.91133735	0.061826153	0.1529759	-1.2080728	0.21494206	0.0040263762	-0.89412082	0.081105103	0.066442524	-1.2799437	0.26042602	-0.029160377	-0.96814269	0.038771848	0.091314494	-0.90256577	0.39474894	-0.10802402	-0.83032767	0.43999549	0.18221092	-0.893576	0.38029461	0.013874936	-0.86493406	0.43104371	0.05971529	-0.97542356	0.78301959	-0.10043104	-0.94041284	0.80112449	0.24316269	-0.89514177	0.8323224	-0.066536185	-0.85973086	0.84913348	0.17727604	-1.0617337	0.9213157	0.082364066	-0.92520471	1.3237229	-0.11741407	-0.9197501	1.308336	0.24516021	-0.9978815	1.3590229	0.064960199	-0.95098335	1.0007999	-0.17563348	-1.0128716	1.006511	0.30807049	-0.76486808	0.83643587	-0.15440722	-0.89344631	0.80092466	0.35155641
64	0.252	-1.1941309	0.0797081	-0.049211091	-0.77787725	0.036328795	0.12922773	-1.2121122	0.20769245	-0.076596957	-0.91135774	0.061823808	0.15302486	-1.1927401	0.21368669	0.004203014	-0.89422251	0.081268687	0.066528644	-1.2659438	0.25762169	-0.028679041	-0.96828233	0.038749462	0.091447348	-0.8901825	0.39788497	-0.10785498	-0.82920904	0.44008298	0.18262441	-0.88064889	0.38356922	0.014118533	-0.86409273	0.43125604	0.059825325	-0.96882567	0.78532769	-0.10021404	-0.93585246	0.80235079	0.24341994	-0.88900837	0.83442095	-0.066286692	-0.85419246	0.85083204	0.17806243	-1.0558229	0.92291979	0.082554491	-0.91952618	1.3256935	-0.11740797	-0.91321803	1.3105069	0.24499303	-0.9918223	1.3608638	0.065115642	-0.94696853	1.0030246	-0.17463845	-1.0053873	1.0082333	0.30857774	-0.76243404	0.83693251	-0.15521575	-0.88311455	0.80393265	0.35176568
65	0.256	-1.1754911	0.078797662	-0.049970839	-0.77797925	0.03635176	0.12926044	-1.1969427	0.20622412	-0.076308393	-0.91140751	0.061776819	0.15304222	-1.1774794	0.21227122	0.0044586845	-0.89435318	0.081432302	0.06661068	-1.2519221	0.25449169	-0.028067214	-0.96842978	0.038727036	0.0915849	-0.87790225	0.40108442	-0.10765733	-0.82811791	0.44012094	0.18263462	-0.86775916	0.38699	0.014388206	-0.86348597	0.43145463	0.059862935	-0.96210695	0.78764635	-0.099649457	-0.93074371	0.80361863	0.24373627	-0.88289604	0.83648893	-0.06598217	-0.84847585	0.85258577	0.1788478	-1.0498684	0.92448121	0.082688302	-0.91383286	1.3276378	-0.11739791	-0.90666946	1.3126512	0.2448216	-0.98578188	1.3626789	0.065271562	-0.94279987	1.0052984	-0.17341449	-0.99793487	1.0099549	0.30907471	-0.76008661	0.8374448	-0.15607822	-0.87282702	0.8069725	0.35192954
66	0.26	-1.1564566	0.077881535	-0.050862913	-0.77808213	0.036373733	0.12929776	-1.1816446	0.20459331	-0.075996072	-0.91155291	0.061666364	0.15302821	-1.1623068	0.21069357	0.0048000173	-0.89449964	0.08159391	0.066702737	-1.2379758	0.25111403	-0.027239021	-0.96857123	0.038735567	0.091703194	-0.86572672	0.40432397	-0.10743311	-0.82707494	0.44015018	0.18238501	-0.85502952	0.3905197	0.01471194	-0.86297051	0.43165188	0.059847587	-0.95530957	0.78995293	-0.098935282	-0.92521903	0.80490959	0.24403544	-0.87681761	0.8385256	-0.065656654	-0.84264614	0.8543579	0.17962533	-1.0440294	0.92608839	0.082830591	-0.90812917	1.3295495	-0.11738703	-0.90014158	1.314766	0.24464486	-0.97976111	1.3644617	0.065418685	-0.93867448	1.0076122	-0.17217404	-0.99038173	1.0116979	0.30968998	-0.757825	0.83796782	-0.15698581	-0.86255486	0.81003147	0.35205274
67	0.264	-1.1371162	0.076971271	-0.05181164	-0.77818432	0.036397644	0.12934733	-1.1662194	0.20279103	-0.075667111	-0.91177429	0.061535645	0.15301178	-1.1470305	0.20897013	0.0051716772	-0.89464402	0.081752751	0.066813083	-1.2240264	0.24751117	-0.026341363	-0.96870603	0.038776061	0.091799759	-0.85362987	0.40758434	-0.10716786	-0.82615533	0.44033896	0.18227958	-0.84257244	0.39409575	0.015095981	-0.862582	0.43183768	0.059812258	-0.9484835	0.79222954	-0.09836864	-0.91958659	0.80619683	0.24429	-0.87072686	0.84054701	-0.065323767	-0.83679875	0.85609732	0.1803909	-1.0383591	0.92781136	0.082979714	-0.90241747	1.3314284	-0.11737674	-0.89367079	1.3168586	0.24446105	-0.97375538	1.3662049	0.06555111	-0.93478247	1.009938	-0.17115365	-0.98271406	1.0134602	0.31044167	-0.75567149	0.83849523	-0.15793672	-0.85226663	0.81310747	0.35214195
